<?xml version="1.0" standalone="no"?>
<!DOCTYPE svg PUBLIC "-//W3C//DTD SVG 20010904//EN"
 "http://www.w3.org/TR/2001/REC-SVG-20010904/DTD/svg10.dtd">
<svg version="1.0" xmlns="http://www.w3.org/2000/svg"
 width="132.000000pt" height="132.000000pt" viewBox="0 0 132.000000 132.000000"
 preserveAspectRatio="xMidYMid meet">
<metadata>
Created by potrace 1.11, written by Peter Selinger 2001-2013
</metadata>
<g transform="translate(0.000000,132.000000) scale(0.100000,-0.100000)"
fill="#000000" stroke="none">
<path d="M551 1279 c-238 -46 -423 -209 -494 -434 -31 -99 -31 -271 0 -370 30
-92 86 -183 159 -257 73 -74 146 -118 249 -154 109 -37 254 -39 365 -5 426
130 586 630 316 988 -133 176 -384 274 -595 232z m250 -95 c145 -43 276 -150
338 -275 34 -70 61 -179 61 -249 0 -239 -174 -465 -405 -525 -76 -19 -204 -19
-280 0 -268 70 -446 353 -393 623 40 202 172 352 367 419 82 28 229 31 312 7z"/>
<path d="M518 1111 c-127 -41 -225 -126 -286 -249 -34 -69 -37 -83 -40 -178
-6 -160 35 -263 150 -369 231 -213 594 -144 733 140 127 259 -7 570 -284 655
-81 25 -195 26 -273 1z m86 -102 c10 -50 8 -53 -31 -66 -21 -6 -46 -15 -55
-18 -13 -5 -22 3 -37 33 l-20 40 47 21 c68 30 88 28 96 -10z m196 10 l49 -21
-20 -40 c-15 -30 -24 -38 -37 -33 -9 3 -34 12 -54 18 -40 13 -42 16 -32 66 8
38 25 40 94 10z m-381 -114 c22 -33 23 -36 7 -60 -21 -31 -24 -31 -64 3 l-32
27 26 33 c14 17 28 32 32 32 4 0 18 -16 31 -35z m531 -57 c-37 -34 -45 -35
-66 -3 -16 24 -15 27 12 62 l28 36 28 -34 29 -34 -31 -27z"/>
</g>
</svg>
